<?xml version="1.0" standalone="no"?>
<!DOCTYPE svg PUBLIC "-//W3C//DTD SVG 20010904//EN"
 "http://www.w3.org/TR/2001/REC-SVG-20010904/DTD/svg10.dtd">
<svg version="1.0" xmlns="http://www.w3.org/2000/svg"
 width="604.000000pt" height="604.000000pt" viewBox="0 0 604.000000 604.000000"
 preserveAspectRatio="xMidYMid meet">
<metadata>
Created by potrace 1.14, written by Peter Selinger 2001-2017
</metadata>
<g transform="translate(0.000000,604.000000) scale(0.100000,-0.100000)"
fill="#000000" stroke="none">
<path d="M1061 5579 c-11 -11 -18 -33 -19 -64 -1 -26 -5 -51 -8 -56 -3 -5 -2
-9 3 -9 4 0 8 -25 8 -55 0 -30 -3 -55 -6 -55 -3 0 -4 -12 -2 -27 6 -41 5 -152
-2 -162 -3 -5 -1 -12 4 -15 5 -3 5 -21 1 -41 -4 -20 -4 -38 1 -41 5 -3 7 -9 4
-14 -7 -12 -10 -179 -3 -186 3 -3 3 -17 -1 -32 l-7 -27 -157 -2 c-128 -1 -161
-4 -185 -19 -63 -36 -59 119 -58 -2164 1 -1971 2 -2086 19 -2111 39 -57 -49
-54 1468 -54 l1397 0 27 25 c15 14 32 36 37 50 6 15 10 169 10 377 l-1 353 27
1 c15 0 407 0 872 0 534 0 857 4 877 10 21 7 34 19 40 37 5 15 9 539 8 1164
l0 1138 -23 22 -22 23 -883 1 c-485 1 -885 2 -889 3 -4 0 -7 236 -6 524 0 311
-4 532 -10 547 -24 63 -58 73 -247 74 l-150 1 0 382 c0 354 -1 384 -18 400
-17 17 -73 18 -1053 18 -949 0 -1037 -1 -1053 -16z"/>
</g>
</svg>
